<svg xmlns="http://www.w3.org/2000/svg" xmlns:xlink="http://www.w3.org/1999/xlink" width="1024" zoomAndPan="magnify" viewBox="0 0 768 767.999994" height="1024" preserveAspectRatio="xMidYMid meet" version="1.0"><defs><g/></defs><g fill="#f3e7d3" fill-opacity="1"><g transform="translate(115.172279, 452.288962)"><g><path d="M 134.59375 -65.859375 C 134.59375 -52.546875 131.894531 -40.757812 126.5 -30.5 C 121.101562 -20.238281 113.570312 -12.226562 103.90625 -6.46875 C 94.25 -0.71875 83.125 2.15625 70.53125 2.15625 C 58.0625 2.15625 47.023438 -0.71875 37.421875 -6.46875 C 27.828125 -12.226562 20.359375 -20.238281 15.015625 -30.5 C 9.679688 -40.757812 7.015625 -52.546875 7.015625 -65.859375 C 7.015625 -79.171875 9.710938 -90.953125 15.109375 -101.203125 C 20.515625 -111.460938 28.015625 -119.472656 37.609375 -125.234375 C 47.203125 -130.992188 58.238281 -133.875 70.71875 -133.875 C 83.3125 -133.875 94.40625 -130.992188 104 -125.234375 C 113.601562 -119.472656 121.101562 -111.492188 126.5 -101.296875 C 131.894531 -91.109375 134.59375 -79.296875 134.59375 -65.859375 Z M 110.296875 -65.859375 C 110.296875 -75.210938 108.675781 -83.335938 105.4375 -90.234375 C 102.195312 -97.128906 97.609375 -102.4375 91.671875 -106.15625 C 85.734375 -109.875 78.75 -111.734375 70.71875 -111.734375 C 62.675781 -111.734375 55.6875 -109.875 49.75 -106.15625 C 43.8125 -102.4375 39.222656 -97.128906 35.984375 -90.234375 C 32.742188 -83.335938 31.125 -75.210938 31.125 -65.859375 C 31.125 -56.503906 32.742188 -48.40625 35.984375 -41.5625 C 39.222656 -34.726562 43.8125 -29.421875 49.75 -25.640625 C 55.6875 -21.859375 62.675781 -19.96875 70.71875 -19.96875 C 78.75 -19.96875 85.734375 -21.859375 91.671875 -25.640625 C 97.609375 -29.421875 102.195312 -34.757812 105.4375 -41.65625 C 108.675781 -48.550781 110.296875 -56.617188 110.296875 -65.859375 Z M 110.296875 -65.859375 "/></g></g></g><g fill="#f3e7d3" fill-opacity="1"><g transform="translate(256.597042, 452.288962)"><g><path d="M 33.28125 0 L 11.34375 0 L 11.34375 -88.890625 L 31.671875 -88.890625 L 33.46875 -77.375 C 36.226562 -81.925781 40.15625 -85.429688 45.25 -87.890625 C 50.351562 -90.359375 55.90625 -91.59375 61.90625 -91.59375 C 73.050781 -91.59375 81.472656 -88.320312 87.171875 -81.78125 C 92.878906 -75.238281 95.734375 -66.210938 95.734375 -54.703125 L 95.734375 0 L 73.78125 0 L 73.78125 -49.484375 C 73.78125 -56.921875 72.066406 -62.46875 68.640625 -66.125 C 65.222656 -69.78125 60.695312 -71.609375 55.0625 -71.609375 C 48.34375 -71.609375 43.03125 -69.445312 39.125 -65.125 C 35.226562 -60.8125 33.28125 -55.054688 33.28125 -47.859375 Z M 33.28125 0 "/></g></g></g><g fill="#f3e7d3" fill-opacity="1"><g transform="translate(351.779253, 452.288962)"><g><path d="M 3.0625 -110.296875 L 3.0625 -131.53125 L 103.109375 -131.53125 L 103.109375 -110.296875 L 64.59375 -110.296875 L 64.59375 0 L 41.5625 0 L 41.5625 -110.296875 Z M 3.0625 -110.296875 "/></g></g></g><g fill="#f3e7d3" fill-opacity="1"><g transform="translate(442.822836, 452.288962)"><g><path d="M 37.78125 2.34375 C 28.3125 2.34375 20.875 -0.175781 15.46875 -5.21875 C 10.070312 -10.257812 7.375 -16.976562 7.375 -25.375 C 7.375 -33.53125 10.222656 -40.066406 15.921875 -44.984375 C 21.617188 -49.898438 29.75 -52.78125 40.3125 -53.625 L 66.9375 -55.59375 L 66.9375 -57.578125 C 66.9375 -63.578125 65.285156 -67.894531 61.984375 -70.53125 C 58.691406 -73.175781 54.222656 -74.5 48.578125 -74.5 C 42.097656 -74.5 37.117188 -73.207031 33.640625 -70.625 C 30.171875 -68.039062 28.4375 -64.410156 28.4375 -59.734375 L 9.71875 -59.734375 C 9.71875 -69.335938 13.375 -77.046875 20.6875 -82.859375 C 28.007812 -88.679688 37.664062 -91.59375 49.65625 -91.59375 C 61.65625 -91.59375 71.101562 -88.410156 78 -82.046875 C 84.894531 -75.691406 88.34375 -66.335938 88.34375 -53.984375 L 88.34375 0 L 69.09375 0 L 67.484375 -13.140625 C 65.554688 -8.578125 61.863281 -4.851562 56.40625 -1.96875 C 50.945312 0.90625 44.738281 2.34375 37.78125 2.34375 Z M 44.984375 -14.21875 C 51.703125 -14.21875 57.066406 -16.132812 61.078125 -19.96875 C 65.097656 -23.8125 67.109375 -29.148438 67.109375 -35.984375 L 67.109375 -40.671875 L 48.578125 -39.21875 C 41.742188 -38.625 36.882812 -37.21875 34 -35 C 31.125 -32.78125 29.6875 -29.867188 29.6875 -26.265625 C 29.6875 -18.234375 34.785156 -14.21875 44.984375 -14.21875 Z M 44.984375 -14.21875 "/></g></g></g><g fill="#f3e7d3" fill-opacity="1"><g transform="translate(541.424302, 452.288962)"><g><path d="M 11.34375 41.203125 L 11.34375 -88.890625 L 31.671875 -88.890625 L 33.109375 -75.390625 C 35.867188 -80.546875 39.976562 -84.535156 45.4375 -87.359375 C 50.894531 -90.179688 56.984375 -91.59375 63.703125 -91.59375 C 72.097656 -91.59375 79.382812 -89.703125 85.5625 -85.921875 C 91.738281 -82.140625 96.566406 -76.800781 100.046875 -69.90625 C 103.523438 -63.007812 105.265625 -54.882812 105.265625 -45.53125 C 105.265625 -36.289062 103.644531 -28.070312 100.40625 -20.875 C 97.164062 -13.675781 92.457031 -8.003906 86.28125 -3.859375 C 80.101562 0.273438 72.578125 2.34375 63.703125 2.34375 C 57.097656 2.34375 51.066406 1.082031 45.609375 -1.4375 C 40.148438 -3.957031 36.039062 -7.4375 33.28125 -11.875 L 33.28125 41.203125 Z M 33.46875 -44.4375 C 33.46875 -36.40625 35.742188 -29.898438 40.296875 -24.921875 C 44.859375 -19.941406 50.921875 -17.453125 58.484375 -17.453125 C 66.273438 -17.453125 72.328125 -19.96875 76.640625 -25 C 80.960938 -30.039062 83.125 -36.519531 83.125 -44.4375 C 83.125 -52.363281 80.960938 -58.875 76.640625 -63.96875 C 72.328125 -69.0625 66.273438 -71.609375 58.484375 -71.609375 C 50.921875 -71.609375 44.859375 -69.085938 40.296875 -64.046875 C 35.742188 -59.015625 33.46875 -52.476562 33.46875 -44.4375 Z M 33.46875 -44.4375 "/></g></g></g></svg>